<svg t="1752130758764" class="icon" viewBox="0 0 1304 1024" version="1.1" xmlns="http://www.w3.org/2000/svg" p-id="6253" width="64" height="64"><path d="M36.66666666 448.53771062a165.74755953 140.89399541 90 1 0 281.78799178 0 165.74755953 140.89399541 90 1 0-281.78799178 0Z" fill="#ffd200" p-id="6254"></path><path d="M1087.04090506 747.12063322a135.92328297 165.74755953 12.07 1 0 69.31780671-324.16670937 135.92328297 165.74755953 12.07 1 0-69.31780671 324.16670937Z" fill="#ffd200" p-id="6255"></path><path d="M337.36979121 201.03049631a185.03049631 144.83628477 90 1 0 289.67257053 0 185.03049631 144.83628477 90 1 0-289.67257053 0Z" fill="#ffd200" p-id="6256"></path><path d="M855.44600527 433.63750153a144.83628477 185.03049631 6.71 1 0 43.2394355-367.52617687 144.83628477 185.03049631 6.71 1 0-43.2394355 367.52617687Z" fill="#ffd200" p-id="6257"></path><path d="M948.00863919 777.46177106c-10.36993497 157.00596156-161.976674 241.2509716-341.3508425 229.33840204s-318.63982691-115.18341206-308.52699722-272.27507604 167.89010806-256.67732141 343.57909247-262.93356315c181.68812087 36.50902841 316.66868223 148.77857416 306.29874725 305.87023715z" fill="#ffd200" p-id="6258"></path></svg>